<?xml version="1.0" encoding="UTF-8"?>
<svg width="700pt" height="700pt" version="1.1" viewBox="0 0 700 700" xmlns="http://www.w3.org/2000/svg" xmlns:xlink="http://www.w3.org/1999/xlink">
 <defs>
  <symbol id="b" overflow="visible">
   <path d="m39.078-2.3281c-2.0117 1.043-4.1094 1.8281-6.2969 2.3594s-4.4648 0.79688-6.8281 0.79688c-7.0859 0-12.699-1.9766-16.844-5.9375-4.1367-3.957-6.2031-9.3281-6.2031-16.109 0-6.7891 2.0664-12.164 6.2031-16.125 4.1445-3.9688 9.7578-5.9531 16.844-5.9531 2.3633 0 4.6406 0.26562 6.8281 0.79688s4.2852 1.3242 6.2969 2.375v8.7969c-2.0312-1.3828-4.0391-2.3984-6.0156-3.0469-1.9688-0.64453-4.0469-0.96875-6.2344-0.96875-3.9062 0-6.9844 1.2578-9.2344 3.7656-2.2422 2.5-3.3594 5.9531-3.3594 10.359 0 4.3867 1.1172 7.8359 3.3594 10.344 2.25 2.5 5.3281 3.75 9.2344 3.75 2.1875 0 4.2656-0.32031 6.2344-0.96875 1.9766-0.64453 3.9844-1.6602 6.0156-3.0469z"/>
  </symbol>
  <symbol id="i" overflow="visible">
   <path d="m16.031-40.953v9.0625h10.516v7.2812h-10.516v13.531c0 1.4805 0.28906 2.4805 0.875 3 0.59375 0.52344 1.7656 0.78125 3.5156 0.78125h5.2344v7.2969h-8.7344c-4.0312 0-6.8867-0.83594-8.5625-2.5156-1.6797-1.6875-2.5156-4.5391-2.5156-8.5625v-13.531h-5.0781v-7.2812h5.0781v-9.0625z"/>
  </symbol>
  <symbol id="h" overflow="visible">
   <path d="m26.594-27.234v-17.078h10.266v44.312h-10.266v-4.6094c-1.3984 1.875-2.9453 3.25-4.6406 4.125-1.6875 0.875-3.6406 1.3125-5.8594 1.3125-3.9297 0-7.1562-1.5625-9.6875-4.6875-2.5234-3.125-3.7812-7.1445-3.7812-12.062 0-4.9141 1.2578-8.9375 3.7812-12.062 2.5312-3.125 5.7578-4.6875 9.6875-4.6875 2.1953 0 4.1445 0.44531 5.8438 1.3281 1.707 0.88672 3.2578 2.2578 4.6562 4.1094zm-6.7188 20.656c2.1875 0 3.8516-0.79688 5-2.3906 1.1445-1.5938 1.7188-3.9102 1.7188-6.9531 0-3.0391-0.57422-5.3594-1.7188-6.9531-1.1484-1.5938-2.8125-2.3906-5-2.3906-2.168 0-3.8242 0.79688-4.9688 2.3906-1.1484 1.5938-1.7188 3.9141-1.7188 6.9531 0 3.043 0.57031 5.3594 1.7188 6.9531 1.1445 1.5938 2.8008 2.3906 4.9688 2.3906z"/>
  </symbol>
  <symbol id="g" overflow="visible">
   <path d="m21.875-6.5781c2.1758 0 3.8359-0.79688 4.9844-2.3906 1.1562-1.5938 1.7344-3.9102 1.7344-6.9531 0-3.0391-0.57812-5.3594-1.7344-6.9531-1.1484-1.5938-2.8086-2.3906-4.9844-2.3906-2.1875 0-3.8672 0.80469-5.0312 2.4062-1.168 1.6055-1.75 3.918-1.75 6.9375 0 3.0234 0.58203 5.3359 1.75 6.9375 1.1641 1.6055 2.8438 2.4062 5.0312 2.4062zm-6.7812-20.656c1.4062-1.8516 2.9609-3.2227 4.6719-4.1094 1.707-0.88281 3.6719-1.3281 5.8906-1.3281 3.9375 0 7.1641 1.5625 9.6875 4.6875 2.5195 3.125 3.7812 7.1484 3.7812 12.062 0 4.918-1.2617 8.9375-3.7812 12.062-2.5234 3.125-5.75 4.6875-9.6875 4.6875-2.2188 0-4.1836-0.44531-5.8906-1.3281-1.7109-0.88281-3.2656-2.2539-4.6719-4.1094v4.6094h-10.188v-44.312h10.188z"/>
  </symbol>
  <symbol id="f" overflow="visible">
   <path d="m0.28125-42.516h11.031l11.266 31.375 11.25-31.375h11.031l-15.75 42.516h-13.078z"/>
  </symbol>
  <symbol id="e" overflow="visible">
   <path d="m5.3594-42.516h10.953v42.516h-10.953z"/>
  </symbol>
  <symbol id="a" overflow="visible">
   <path d="m5.3594-42.516h12.234l15.469 29.156v-29.156h10.406v42.516h-12.25l-15.469-29.172v29.172h-10.391z"/>
  </symbol>
  <symbol id="d" overflow="visible">
   <path d="m3.2812-42.516h35.734v6.625l-22.812 27.609h23.469v8.2812h-37.047v-6.6406l22.812-27.594h-22.156z"/>
  </symbol>
  <symbol id="c" overflow="visible">
   <path d="m5.3594-42.516h29.594v8.2812h-18.641v7.9219h17.516v8.2812h-17.516v9.75h19.266v8.2812h-30.219z"/>
  </symbol>
 </defs>
 <g>
  <path d="m490 350h58.332v23.332h-58.332z"/>
  <path d="m303.33 350h163.33v23.332h-163.33z"/>
  <path d="m373.33 396.67h175v23.332h-175z"/>
  <path d="m303.33 396.67h46.668v23.332h-46.668z"/>
  <path d="m151.67 443.33h396.67v23.332h-396.67z"/>
  <path d="m572.83 315h45.5c4.957 0.003906 9.375-3.125 11.016-7.8047 1.6406-4.6758 0.14844-9.8789-3.7227-12.973-11.414-9.125-18.059-22.945-18.059-37.555 0-14.613 6.6445-28.434 18.059-37.555 3.8711-3.0977 5.3633-8.3008 3.7227-12.977s-6.0586-7.8047-11.016-7.8047h-63.148c20.609-12.281 34.766-33.016 38.707-56.684 3.9375-23.668-2.7383-47.871-18.258-66.168-15.52-18.297-38.305-28.836-62.301-28.812h-396.66c-4.5273-0.003907-8.6484 2.6133-10.57 6.7109-1.9219 4.1016-1.3008 8.9414 1.5977 12.422 14.637 17.551 22.652 39.68 22.652 62.531 0 22.855-8.0156 44.984-22.652 62.535-2.8984 3.4766-3.5195 8.3203-1.5977 12.418 1.9219 4.1016 6.043 6.7188 10.57 6.7148h47.027c-14.895 10.883-23.699 28.219-23.699 46.668 0 18.445 8.8047 35.781 23.699 46.664h-82.027c-4.4219 0-8.4609 2.4961-10.438 6.4492-1.9766 3.9531-1.5469 8.6836 1.1016 12.219 18.562 24.957 28.586 55.23 28.586 86.332 0 31.105-10.023 61.379-28.586 86.336-2.6484 3.5352-3.0781 8.2656-1.1016 12.215 1.9766 3.9531 6.0156 6.4492 10.438 6.4492h443.33c31.637 0.007813 61.586-14.262 81.516-38.832s27.707-56.824 21.172-87.777c-6.5391-30.953-26.691-57.309-54.855-71.723zm-386.16 11.668h70v58.332l-28-21c-4.1484-3.1094-9.8516-3.1094-14 0l-28 21zm-47.965-256.67h374.63c20.84 0 40.098 11.117 50.52 29.168 10.422 18.047 10.422 40.285 0 58.332-10.422 18.047-29.68 29.168-50.52 29.168h-374.63c19.988-36.324 19.988-80.348 0-116.67zm59.629 151.67h395.02c-12.164 21.746-12.164 48.25 0 70h-395.02c-12.504 0-24.059-6.6719-30.309-17.5-6.2539-10.832-6.2539-24.172 0-35 6.25-10.832 17.805-17.5 30.309-17.5zm326.67 268.33h-421.88c13.848-24.992 21.113-53.094 21.113-81.668 0-28.57-7.2656-56.672-21.113-81.664h60.211v81.668-0.003907c0 4.4219 2.4961 8.4609 6.4492 10.438 3.9531 1.9766 8.6836 1.5469 12.219-1.1016l39.668-29.75 39.668 29.75h-0.003907c3.5352 2.6484 8.2656 3.0781 12.219 1.1016 3.9531-1.9766 6.4492-6.0156 6.4492-10.438v-81.664h245c29.176 0 56.137 15.562 70.727 40.832 14.586 25.27 14.586 56.398 0 81.668-14.59 25.266-41.551 40.832-70.727 40.832z"/>
  <path d="m536.67 245h23.332v23.332h-23.332z"/>
  <path d="m420 245h93.332v23.332h-93.332z"/>
  <path d="m256.67 163.33c0 4.7188 2.8438 8.9727 7.1992 10.777 4.3594 1.8047 9.3789 0.80859 12.715-2.5273l15.086-15.086 15.086 15.086h-0.003906c3.3398 3.3359 8.3555 4.332 12.715 2.5273s7.1992-6.0586 7.2031-10.777v-46.664h163.33v-23.336h-303.33v23.332h70zm23.332-46.668h23.332v18.504l-3.418-3.418c-4.5547-4.5547-11.941-4.5547-16.496 0l-3.418 3.4219z"/>
  <path d="m350 140h186.67v23.332h-186.67z"/>
  <path d="m186.67 140h46.668v23.332h-46.668z"/>
 </g>
</svg>
